<?xml version="1.0" encoding="UTF-8"?>
<svg version="1.1" xmlns="http://www.w3.org/2000/svg" width="35.93" height="32">
<path d="M0 0 C55.11 0 110.22 0 167 0 C167 20.46 167 40.92 167 62 C111.89 62 56.78 62 0 62 C0 41.54 0 21.08 0 0 Z " fill="#201940" transform="translate(0,0)"/>
<path d="M0 0 C11.625 -0.25 11.625 -0.25 15 2 C15.1875 4.375 15.1875 4.375 15 7 C15 8.32 15 9.64 15 11 C15.33 11.33 15.66 11.66 16 12 C16.43243715 15.20003488 16.34580978 16.5430667 14.37109375 19.15234375 C10.07930403 22.49668731 5.24954923 21.22824127 0 21 C0 14.07 0 7.14 0 0 Z " fill="#E9E7E6" transform="translate(67,17)"/>
<path d="M0 0 C1.65 0 3.3 0 5 0 C5 7.59 5 15.18 5 23 C-6.36370819 23.49407427 -6.36370819 23.49407427 -9.359375 21.16796875 C-11 19 -11 19 -11.5 16.0625 C-10.87307907 12.2226093 -9.89648251 10.59158961 -7 8 C-3.75 7.6875 -3.75 7.6875 -1 8 C-0.67 5.36 -0.34 2.72 0 0 Z " fill="#EBF2F6" transform="translate(141,15)"/>
<path d="M0 0 C1.65 0 3.3 0 5 0 C5.33 2.64 5.66 5.28 6 8 C6.928125 7.95875 7.85625 7.9175 8.8125 7.875 C12 8 12 8 15 10 C15.3984375 12.27734375 15.3984375 12.27734375 15.375 14.9375 C15.38273437 15.81277344 15.39046875 16.68804688 15.3984375 17.58984375 C15 20 15 20 13.86328125 21.8046875 C9.92199158 24.333062 4.46803027 23.14413001 0 23 C0 15.41 0 7.82 0 0 Z " fill="#F3F1EA" transform="translate(48,15)"/>
<path d="M0 0 C2.5 1.625 2.5 1.625 4 4 C4.5625 6.9375 4.5625 6.9375 4 10 C2.00028288 12.87459336 0.51060972 14.62907801 -2.97265625 15.484375 C-6.71889787 15.73645855 -8.64043025 15.30563428 -11.5 12.875 C-13.26576304 9.49062085 -13.71928041 7.75624215 -13 4 C-9.1154235 -0.61293459 -5.65438069 -0.7180166 0 0 Z " fill="#F0F3F2" transform="translate(41,23)"/>
<path d="M0 0 C2.5 1.625 2.5 1.625 4 4 C4.5625 6.9375 4.5625 6.9375 4 10 C1.99485568 12.88239496 0.53054789 14.68436172 -3.0078125 15.4140625 C-5.95086811 15.53352232 -8.28245094 15.52304259 -10.71484375 13.75 C-12.7703671 10.95098948 -12.47669711 8.46424899 -12.33984375 5.09765625 C-12 3 -12 3 -10.5 0.9375 C-6.9231276 -0.40382715 -3.76698612 -0.68701181 0 0 Z " fill="#F3F2EF" transform="translate(97,23)"/>
<path d="M0 0 C7.43147208 -0.36548223 7.43147208 -0.36548223 9.75 1.125 C11.56032474 3.8404871 11.29152862 5.96261285 11.1875 9.1875 C11.16042969 10.27417969 11.13335937 11.36085938 11.10546875 12.48046875 C11.07066406 13.31191406 11.03585938 14.14335938 11 15 C9.04196493 15.05389087 7.08351091 15.09274217 5.125 15.125 C4.03445312 15.14820313 2.94390625 15.17140625 1.8203125 15.1953125 C-1 15 -1 15 -3 13 C-3.4375 10.5625 -3.4375 10.5625 -3 8 C0.27178817 5.36439287 1.72068147 5 6 5 C6 4.34 6 3.68 6 3 C3.69 3.66 1.38 4.32 -1 5 C-0.67 3.35 -0.34 1.7 0 0 Z " fill="#E1E4E8" transform="translate(105,23)"/>
<path d="M0 0 C1.65 0 3.3 0 5 0 C5.10812003 2.75105422 5.18734945 5.49785087 5.25 8.25 C5.30027344 9.41595703 5.30027344 9.41595703 5.3515625 10.60546875 C5.41632508 14.39407985 5.44817204 16.36312394 3.21875 19.53125 C0.10691902 21.59119445 -2.35676962 21.28024849 -6 21 C-6 19.35 -6 17.7 -6 16 C-4.02 16 -2.04 16 0 16 C0 10.72 0 5.44 0 0 Z " fill="#E6EFF3" transform="translate(20,17)"/>
<path d="M0 0 C3.3 0 6.6 0 10 0 C10 1.32 10 2.64 10 4 C8.68 4.33 7.36 4.66 6 5 C5.67 8.3 5.34 11.6 5 15 C3.35 15 1.7 15 0 15 C0 10.05 0 5.1 0 0 Z " fill="#F6F2E6" transform="translate(120,23)"/>
<path d="M0 0 C2.5 0.125 2.5 0.125 3.5 1.125 C3.625 3.625 3.625 3.625 3.5 6.125 C2.5 7.125 2.5 7.125 0 7.25 C-2.5 7.125 -2.5 7.125 -3.5 6.125 C-3.625 3.625 -3.625 3.625 -3.5 1.125 C-2.5 0.125 -2.5 0.125 0 0 Z " fill="#353350" transform="translate(36.5,26.875)"/>
<path d="M0 0 C1.66611905 -0.042721 3.33382885 -0.04063832 5 0 C6 1 6 1 6.0625 3.5625 C6.041875 4.366875 6.02125 5.17125 6 6 C4.34385343 6.38218767 2.67542976 6.71395102 1 7 C0 6 0 6 -0.0625 2.9375 C-0.041875 1.968125 -0.02125 0.99875 0 0 Z " fill="#242254" transform="translate(90,27)"/>
<path d="M0 0 C1.65 0 3.3 0 5 0 C5 1.98 5 3.96 5 6 C3.35 6.33 1.7 6.66 0 7 C0 4.69 0 2.38 0 0 Z " fill="#30214E" transform="translate(136,27)"/>
<path d="M0 0 C1.32 0 2.64 0 4 0 C4 1.98 4 3.96 4 6 C2.35 6.33 0.7 6.66 -1 7 C-1.04254356 5.00045254 -1.04080783 2.99958364 -1 1 C-0.67 0.67 -0.34 0.34 0 0 Z " fill="#231E43" transform="translate(54,27)"/>
<path d="M0 0 C1.65 0.33 3.3 0.66 5 1 C4.67 2.32 4.34 3.64 4 5 C2.35 4.67 0.7 4.34 -1 4 C-0.67 2.68 -0.34 1.36 0 0 Z " fill="#E8EDF0" transform="translate(150,33)"/>
<path d="M0 0 C1.65 0 3.3 0 5 0 C5 1.65 5 3.3 5 5 C3.35 5 1.7 5 0 5 C0 3.35 0 1.7 0 0 Z " fill="#212148" transform="translate(72,29)"/>
</svg>
